<?xml version="1.0" encoding="UTF-8" standalone="no"?>
<svg
   width="58"
   height="16"
   viewBox="0 0 58 16"
   fill="none"
   version="1.1"
   id="svg245"
   sodipodi:docname="ocktanketl-logo-expanded.svg"
   inkscape:version="1.2.1 (9c6d41e, 2022-07-14)"
   xmlns:inkscape="http://www.inkscape.org/namespaces/inkscape"
   xmlns:sodipodi="http://sodipodi.sourceforge.net/DTD/sodipodi-0.dtd"
   xmlns="http://www.w3.org/2000/svg"
   xmlns:svg="http://www.w3.org/2000/svg">
  <defs
     id="defs249" />
  <sodipodi:namedview
     id="namedview247"
     pagecolor="#ffffff"
     bordercolor="#000000"
     borderopacity="0.25"
     inkscape:showpageshadow="2"
     inkscape:pageopacity="0.0"
     inkscape:pagecheckerboard="0"
     inkscape:deskcolor="#d1d1d1"
     showgrid="false"
     inkscape:zoom="14.75"
     inkscape:cx="34.915254"
     inkscape:cy="0"
     inkscape:window-width="1280"
     inkscape:window-height="776"
     inkscape:window-x="0"
     inkscape:window-y="24"
     inkscape:window-maximized="0"
     inkscape:current-layer="svg245" />
  <path
     fill-rule="evenodd"
     clip-rule="evenodd"
     d="M27.2 6.4C25.7089 6.4 24.4561 5.38018 24.1008 4H20.4331C19.651 4 18.9835 4.56546 18.8549 5.33696L18.7234 6.12608C18.5985 6.87531 18.2195 7.52738 17.6835 8C18.2195 8.47262 18.5985 9.12469 18.7234 9.87392L18.8549 10.663C18.9835 11.4345 19.651 12 20.4331 12H20.9008C21.2561 10.6198 22.5089 9.6 24 9.6C25.7673 9.6 27.2 11.0327 27.2 12.8C27.2 14.5673 25.7673 16 24 16C22.5089 16 21.256 14.9802 20.9008 13.6H20.4331C18.8688 13.6 17.5338 12.4691 17.2766 10.9261L17.1451 10.137C17.0165 9.36546 16.349 8.8 15.5669 8.8H14.2992C13.944 10.1802 12.6911 11.2 11.2 11.2C9.70893 11.2 8.45605 10.1802 8.10081 8.8H6.29919C5.94395 10.1802 4.69107 11.2 3.2 11.2C1.43269 11.2 0 9.76731 0 8C0 6.23269 1.43269 4.8 3.2 4.8C4.69107 4.8 5.94395 5.81982 6.29919 7.2H8.10081C8.45605 5.81982 9.70893 4.8 11.2 4.8C12.6911 4.8 13.944 5.81982 14.2992 7.2H15.5669C16.349 7.2 17.0165 6.63454 17.1451 5.86304L17.2766 5.07392C17.5338 3.53092 18.8688 2.4 20.4331 2.4L24.1008 2.4C24.456 1.01982 25.7089 0 27.2 0C28.9673 0 30.4 1.43269 30.4 3.2C30.4 4.96731 28.9673 6.4 27.2 6.4ZM27.2 4.8C28.0837 4.8 28.8 4.08366 28.8 3.2C28.8 2.31634 28.0837 1.6 27.2 1.6C26.3163 1.6 25.6 2.31634 25.6 3.2C25.6 4.08366 26.3163 4.8 27.2 4.8ZM3.2 9.6C4.08366 9.6 4.8 8.88366 4.8 8C4.8 7.11634 4.08366 6.4 3.2 6.4C2.31634 6.4 1.6 7.11634 1.6 8C1.6 8.88366 2.31634 9.6 3.2 9.6ZM12.8 8C12.8 8.88366 12.0837 9.6 11.2 9.6C10.3163 9.6 9.6 8.88366 9.6 8C9.6 7.11634 10.3163 6.4 11.2 6.4C12.0837 6.4 12.8 7.11634 12.8 8ZM25.6 12.8C25.6 13.6837 24.8837 14.4 24 14.4C23.1163 14.4 22.4 13.6837 22.4 12.8C22.4 11.9163 23.1163 11.2 24 11.2C24.8837 11.2 25.6 11.9163 25.6 12.8Z"
     fill="#EA4B71"
     id="path237"
     style="fill:#0000ff" />
  <text
     xml:space="preserve"
     style="font-size:6px;fill:#000000;stroke-width:0.5"
     x="21.051256"
     y="9.7431307"
     id="text527"><tspan
       sodipodi:role="line"
       id="tspan525"
       x="21.051256"
       y="9.7431307"
       style="font-style:normal;font-variant:normal;font-weight:bold;font-stretch:normal;font-size:5.33335px;font-family:sans-serif;-inkscape-font-specification:'sans-serif, Bold';font-variant-ligatures:normal;font-variant-caps:normal;font-variant-numeric:normal;font-variant-east-asian:normal;stroke-width:0.5">OcktankETL</tspan></text>
</svg>
